<?xml version="1.0" encoding="utf-8"?>
<!-- Generator: Adobe Illustrator 28.0.0, SVG Export Plug-In . SVG Version: 6.00 Build 0)  -->
<svg version="1.1" id="Layer_1" xmlns="http://www.w3.org/2000/svg" xmlns:xlink="http://www.w3.org/1999/xlink" x="0px" y="0px"
	 viewBox="0 0 406 346" style="enable-background:new 0 0 406 346;" xml:space="preserve">
<style type="text/css">
	.st0{fill:url(#SVGID_1_);}
	.st1{fill:url(#SVGID_00000010997818122696860840000002571013856785864329_);}
	.st2{fill:url(#SVGID_00000098217477474045249990000011233676927792629686_);}
	.st3{fill:url(#SVGID_00000099640774244422332680000001757871402989423767_);}
	.st4{fill:url(#SVGID_00000109718918776913186950000000353475345609709446_);}
	.st5{fill:url(#SVGID_00000164490430767601557970000007282596213223050368_);}
	.st6{fill:url(#SVGID_00000127016509076894977840000003277052250485417351_);}
	.st7{fill:url(#SVGID_00000030458779909479447250000014231859691420113835_);}
</style>
<g>
	<linearGradient id="SVGID_1_" gradientUnits="userSpaceOnUse" x1="142.5525" y1="173" x2="388.1826" y2="173">
		<stop  offset="1.385225e-07" style="stop-color:#FF3333"/>
		<stop  offset="1" style="stop-color:#D40047"/>
	</linearGradient>
	<path class="st0" d="M388.2,172.9c0.1,67.7-55,122.9-122.8,122.9c-67.8,0-122.9-55.1-122.8-122.9c0-67.6,55-122.6,122.6-122.7
		C332.9,50.1,388.1,105.1,388.2,172.9z M160.5,172.7c-0.2,57.8,46.7,104.9,104.5,105.1c57.8,0.2,104.9-46.6,105.2-104.3
		c0.3-57.9-46.7-105.2-104.6-105.3C207.8,68.1,160.7,114.9,160.5,172.7z"/>
	
		<linearGradient id="SVGID_00000106110658875043345670000018303880900313557172_" gradientUnits="userSpaceOnUse" x1="17.8429" y1="235.0632" x2="127.0635" y2="235.0632">
		<stop  offset="1.385225e-07" style="stop-color:#FF3333"/>
		<stop  offset="1" style="stop-color:#D40047"/>
	</linearGradient>
	<path style="fill:url(#SVGID_00000106110658875043345670000018303880900313557172_);" d="M56.9,256.9c-6.1,0-12,0.1-17.8,0
		C28,256.6,18.9,248,17.9,237c-1-10.8,6.2-21.2,16.9-23.3c5.1-1,10.4-0.5,15.6-0.7c2.1-0.1,4.2,0,6.2,0c0.3-3.2,0.3-5.9,0.9-8.6
		c3.3-16.2,23.1-23.3,35.4-12.2c10.1,9.1,19.6,18.9,28.8,28.8c7.3,7.9,7.1,20.5-0.4,28.4c-9.1,9.6-18.4,19-28.1,28
		c-6.7,6.3-14.9,7.3-23.3,3.6c-8.4-3.7-12.6-10.6-13.1-19.7C56.8,260.1,56.9,258.9,56.9,256.9z"/>
	
		<linearGradient id="SVGID_00000018939395046923502160000006058019684441158286_" gradientUnits="userSpaceOnUse" x1="17.8174" y1="110.1485" x2="127.0397" y2="110.1485">
		<stop  offset="1.385225e-07" style="stop-color:#FF3333"/>
		<stop  offset="1" style="stop-color:#D40047"/>
	</linearGradient>
	<path style="fill:url(#SVGID_00000018939395046923502160000006058019684441158286_);" d="M56.9,132c-6.5,0-12.6,0.3-18.7-0.1
		c-15.6-1-25.1-17.6-18-31.5C24,92.8,30.3,88.6,39,88.3c5.8-0.2,11.7,0,17.6,0c0.3-3,0.3-5.8,0.8-8.4C59.1,71.6,64,66,72,63.3
		c8-2.7,15.5-1.2,21.5,4.6c9.5,9,18.8,18.3,27.8,27.8c7.7,8.1,7.7,20.8,0,28.9c-9.1,9.6-18.4,19-28,28c-6.7,6.3-15,7.3-23.3,3.6
		c-8.4-3.7-12.6-10.6-13.1-19.8C56.8,135.2,56.9,133.9,56.9,132z"/>
	
		<linearGradient id="SVGID_00000180352202061504270850000000356189719472788912_" gradientUnits="userSpaceOnUse" x1="169.542" y1="173" x2="361.1929" y2="173">
		<stop  offset="1.385225e-07" style="stop-color:#FF3333"/>
		<stop  offset="1" style="stop-color:#D40047"/>
	</linearGradient>
	<path style="fill:url(#SVGID_00000180352202061504270850000000356189719472788912_);" d="M361.2,173.1c0,52.8-43,95.7-95.8,95.7
		c-52.9,0-96-43.2-95.8-96.1c0.1-52.7,43.2-95.6,96-95.5C318.3,77.3,361.2,120.3,361.2,173.1z M274.4,156.8c0-8.4,0-16.7,0-25.1
		c0-4-1.7-7-5.3-8.7c-6-2.8-12.5,1.6-12.6,8.7c-0.1,13.7-0.1,27.4,0,41.1c0,2.4-0.6,3.8-2.8,5c-8.4,4.6-16.7,9.5-24.9,14.3
		c-5.4,3.2-7.1,8.1-4.5,12.8c2.6,4.7,7.9,5.9,13.3,2.8c10.6-6,21.1-12.2,31.7-18.3c3.6-2.1,5.3-5,5.2-9.2
		C274.3,172.5,274.4,164.7,274.4,156.8z"/>
</g>
</svg>
