<?xml version="1.0" encoding="utf-8"?>
<!-- Generator: Adobe Illustrator 28.0.0, SVG Export Plug-In . SVG Version: 6.00 Build 0)  -->
<svg version="1.1" id="Layer_1" xmlns="http://www.w3.org/2000/svg" xmlns:xlink="http://www.w3.org/1999/xlink" x="0px" y="0px"
	 viewBox="0 0 412 336" style="enable-background:new 0 0 412 336;" xml:space="preserve">
<style type="text/css">
	.st0{fill:url(#SVGID_1_);}
	.st1{fill:url(#SVGID_00000010293004902706177600000010853277839824492683_);}
	.st2{fill:url(#SVGID_00000088090467857386298310000013514420795819375783_);}
	.st3{fill:url(#SVGID_00000146490169475741718750000006507228101366872230_);}
	.st4{fill:url(#SVGID_00000165913059968835025670000002634634831579803786_);}
	.st5{fill:url(#SVGID_00000151521265049687697680000013276223280313221248_);}
	.st6{fill:url(#SVGID_00000078726442822967635690000009377189646304629949_);}
	.st7{fill:url(#SVGID_00000067918997967850514940000015790743920940492984_);}
</style>
<g>
	<linearGradient id="SVGID_1_" gradientUnits="userSpaceOnUse" x1="29.2445" y1="168" x2="274.8745" y2="168">
		<stop  offset="0" style="stop-color:#7ECE5B"/>
		<stop  offset="1" style="stop-color:#127928"/>
	</linearGradient>
	<path class="st0" d="M274.9,167.9c0.1,67.7-55,122.9-122.8,122.9c-67.8,0-122.9-55.1-122.8-122.9c0-67.6,55-122.6,122.6-122.7
		C219.6,45.1,274.8,100.1,274.9,167.9z M47.2,167.7c-0.2,57.8,46.7,104.9,104.5,105.1c57.8,0.2,104.9-46.6,105.2-104.3
		c0.3-57.9-46.7-105.2-104.6-105.3C94.5,63.1,47.4,109.9,47.2,167.7z"/>
	
		<linearGradient id="SVGID_00000093897523986913568130000012113294630783234465_" gradientUnits="userSpaceOnUse" x1="273.5094" y1="105.1484" x2="382.7301" y2="105.1484">
		<stop  offset="0" style="stop-color:#7ECE5B"/>
		<stop  offset="1" style="stop-color:#127928"/>
	</linearGradient>
	<path style="fill:url(#SVGID_00000093897523986913568130000012113294630783234465_);" d="M343.7,83.3c6.1,0,12-0.1,17.8,0
		c11.1,0.3,20.2,8.9,21.2,19.9c1,10.8-6.2,21.2-16.9,23.3c-5.1,1-10.4,0.5-15.6,0.7c-2.1,0.1-4.2,0-6.2,0c-0.3,3.2-0.3,5.9-0.9,8.6
		c-3.3,16.2-23.1,23.3-35.4,12.2c-10.1-9.1-19.6-18.9-28.8-28.8c-7.3-7.9-7.1-20.5,0.4-28.4c9.1-9.6,18.4-19,28.1-28
		c6.7-6.3,14.9-7.3,23.3-3.6c8.4,3.7,12.6,10.6,13.1,19.7C343.8,80.1,343.7,81.4,343.7,83.3z"/>
	
		<linearGradient id="SVGID_00000011721920515410699290000016702914585942737800_" gradientUnits="userSpaceOnUse" x1="273.5333" y1="230.0632" x2="382.7555" y2="230.0632">
		<stop  offset="0" style="stop-color:#7ECE5B"/>
		<stop  offset="1" style="stop-color:#127928"/>
	</linearGradient>
	<path style="fill:url(#SVGID_00000011721920515410699290000016702914585942737800_);" d="M343.7,208.3c6.5,0,12.6-0.3,18.7,0.1
		c15.6,1,25.1,17.6,18,31.5c-3.8,7.6-10.2,11.9-18.8,12.1c-5.8,0.2-11.7,0-17.6,0c-0.3,3-0.3,5.8-0.8,8.4
		c-1.7,8.3-6.6,13.9-14.5,16.6c-8,2.7-15.5,1.2-21.5-4.6c-9.5-9-18.8-18.3-27.8-27.8c-7.7-8.1-7.7-20.8,0-28.9
		c9.1-9.6,18.4-19,28-28c6.7-6.3,15-7.3,23.3-3.6c8.4,3.7,12.6,10.6,13.1,19.8C343.7,205.1,343.7,206.3,343.7,208.3z"/>
	
		<linearGradient id="SVGID_00000071524954416374617800000010277469947198092184_" gradientUnits="userSpaceOnUse" x1="56.2339" y1="168" x2="247.8849" y2="168">
		<stop  offset="0" style="stop-color:#7ECE5B"/>
		<stop  offset="1" style="stop-color:#127928"/>
	</linearGradient>
	<path style="fill:url(#SVGID_00000071524954416374617800000010277469947198092184_);" d="M247.9,168.1c0,52.8-43,95.7-95.8,95.7
		c-52.9,0-96-43.2-95.8-96.1c0.1-52.7,43.2-95.6,96-95.5C205,72.3,247.9,115.3,247.9,168.1z M161,151.8c0-8.4,0-16.7,0-25.1
		c0-4-1.7-7-5.3-8.7c-6-2.8-12.5,1.6-12.6,8.7c-0.1,13.7-0.1,27.4,0,41.1c0,2.4-0.6,3.8-2.8,5c-8.4,4.6-16.7,9.5-24.9,14.3
		c-5.4,3.2-7.1,8.1-4.5,12.8c2.6,4.7,7.9,5.9,13.3,2.8c10.6-6,21.1-12.2,31.7-18.3c3.6-2.1,5.3-5,5.2-9.2
		C161,167.5,161,159.7,161,151.8z"/>
</g>
</svg>
